<svg width="75" height="75" viewBox="0 0 75 75" fill="none" xmlns="http://www.w3.org/2000/svg">
<g clip-path="url(#clip0_224_166)">
<path fill-rule="evenodd" clip-rule="evenodd" d="M75 16.25V58.75C75.0043 60.8852 74.5869 63.0002 73.7718 64.9737C72.9566 66.9472 71.7598 68.7402 70.25 70.25C68.7402 71.7598 66.9472 72.9566 64.9737 73.7718C63.0002 74.5869 60.8852 75.0043 58.75 75H16.25C14.1149 75.0043 11.9998 74.5869 10.0264 73.7718C8.05292 72.9566 6.25984 71.7598 4.75003 70.25C3.24023 68.7402 2.04343 66.9472 1.2283 64.9737C0.413173 63.0002 -0.0042335 60.8852 3.237e-05 58.75V16.25C-0.0042335 14.1149 0.413173 11.9998 1.2283 10.0264C2.04343 8.05292 3.24023 6.25984 4.75003 4.75003C6.25984 3.24023 8.05292 2.04343 10.0264 1.2283C11.9998 0.413173 14.1149 -0.0042335 16.25 3.237e-05H58.75C60.8852 -0.0042335 63.0002 0.413173 64.9737 1.2283C66.9472 2.04343 68.7402 3.24023 70.25 4.75003C71.7598 6.25984 72.9566 8.05292 73.7718 10.0264C74.5869 11.9998 75.0043 14.1149 75 16.25Z" fill="url(#paint0_linear_224_166)"/>
<path fill-rule="evenodd" clip-rule="evenodd" d="M51.625 43.125H60.9375C61.8492 43.125 62.7235 43.4872 63.3682 44.1318C64.0128 44.7765 64.375 45.6508 64.375 46.5625C64.375 47.4742 64.0128 48.3485 63.3682 48.9932C62.7235 49.6378 61.8492 50 60.9375 50H51.625V43.125Z" fill="white"/>
<path fill-rule="evenodd" clip-rule="evenodd" d="M40.1875 43.1248C40.837 43.1209 41.4808 43.246 42.0816 43.4928C42.6824 43.7395 43.2282 44.1031 43.6875 44.5623C44.1468 45.0216 44.5103 45.5674 44.7571 46.1682C45.0038 46.769 45.1289 47.4128 45.125 48.0623C45.1275 48.7264 45.0001 49.3846 44.75 49.9998H14.0625C13.1508 49.9998 12.2765 49.6377 11.6318 48.993C10.9872 48.3483 10.625 47.474 10.625 46.5623C10.625 45.6506 10.9872 44.7763 11.6318 44.1316C12.2765 43.487 13.1508 43.1248 14.0625 43.1248H40.1875ZM39.3125 20.4998V26.4998H35.3125L30.4375 18.1248C30.2234 17.7554 30.0842 17.3475 30.0278 16.9243C29.9715 16.501 29.9992 16.0709 30.1093 15.6583C30.2193 15.2458 30.4097 14.859 30.6693 14.5201C30.929 14.1812 31.253 13.8969 31.6227 13.6833C31.9923 13.4697 32.4005 13.331 32.8238 13.2753C33.2471 13.2196 33.6772 13.2479 34.0896 13.3586C34.502 13.4692 34.8885 13.6601 35.227 13.9203C35.5655 14.1805 35.8494 14.5048 36.0625 14.8748L39.3125 20.4998ZM42.75 26.3123L59.8125 55.8748C60.2683 56.6622 60.3927 57.5984 60.1583 58.4775C59.9239 59.3565 59.3499 60.1065 58.5625 60.5623C57.7751 61.0182 56.8389 61.1426 55.9599 60.9081C55.0808 60.6737 54.3308 60.0997 53.875 59.3123L43.5625 41.3748C42.625 39.6248 41.9375 38.2498 41.5 37.4998C40.4729 35.75 40.0396 33.7147 40.2649 31.6982C40.4902 29.6818 41.362 27.7923 42.75 26.3123Z" fill="white"/>
<path fill-rule="evenodd" clip-rule="evenodd" d="M28.75 46.2502H20.8125L38.75 15.1877C39.2058 14.4004 39.9558 13.8263 40.8348 13.5919C41.7139 13.3575 42.6501 13.4819 43.4375 13.9377C44.2248 14.3936 44.7989 15.1435 45.0333 16.0226C45.2677 16.9017 45.1433 17.8379 44.6875 18.6252L28.75 46.2502ZM24.5625 53.4377L21.25 59.2502C21.0243 59.6401 20.724 59.9817 20.3663 60.2555C20.0085 60.5293 19.6004 60.73 19.1651 60.846C18.7298 60.9621 18.276 60.9913 17.8294 60.932C17.3828 60.8726 16.9523 60.7259 16.5625 60.5002C16.1726 60.2745 15.831 59.9742 15.5572 59.6165C15.2834 59.2588 15.0827 58.8506 14.9667 58.4154C14.8506 57.9801 14.8214 57.5262 14.8807 57.0796C14.9401 56.6331 15.0868 56.2026 15.3125 55.8127L17.75 51.5627C18.5069 51.1861 19.342 50.9934 20.1875 51.0002C21.0693 50.9713 21.9423 51.1828 22.713 51.6122C23.4837 52.0416 24.1231 52.6727 24.5625 53.4377Z" fill="white"/>
</g>
<defs>
<linearGradient id="paint0_linear_224_166" x1="37.4994" y1="75" x2="37.4994" y2="3.57628e-05" gradientUnits="userSpaceOnUse">
<stop stop-color="#1D6FF2"/>
<stop offset="1" stop-color="#1AC8FC"/>
</linearGradient>
<clipPath id="clip0_224_166">
<rect width="75" height="75" fill="white"/>
</clipPath>
</defs>
</svg>
