<svg width="38" height="38" viewBox="0 0 38 38" fill="none" xmlns="http://www.w3.org/2000/svg">
<path d="M4.75 9.50001C4.75 9.08008 4.91681 8.67735 5.21375 8.38042C5.51068 8.08349 5.91341 7.91667 6.33333 7.91667H31.6667C32.0866 7.91667 32.4893 8.08349 32.7863 8.38042C33.0832 8.67735 33.25 9.08008 33.25 9.50001C33.25 9.91993 33.0832 10.3227 32.7863 10.6196C32.4893 10.9165 32.0866 11.0833 31.6667 11.0833H6.33333C5.91341 11.0833 5.51068 10.9165 5.21375 10.6196C4.91681 10.3227 4.75 9.91993 4.75 9.50001ZM4.75 19C4.75 18.5801 4.91681 18.1774 5.21375 17.8804C5.51068 17.5835 5.91341 17.4167 6.33333 17.4167H31.6667C32.0866 17.4167 32.4893 17.5835 32.7863 17.8804C33.0832 18.1774 33.25 18.5801 33.25 19C33.25 19.4199 33.0832 19.8227 32.7863 20.1196C32.4893 20.4165 32.0866 20.5833 31.6667 20.5833H6.33333C5.91341 20.5833 5.51068 20.4165 5.21375 20.1196C4.91681 19.8227 4.75 19.4199 4.75 19ZM6.33333 26.9167C5.91341 26.9167 5.51068 27.0835 5.21375 27.3804C4.91681 27.6773 4.75 28.0801 4.75 28.5C4.75 28.9199 4.91681 29.3227 5.21375 29.6196C5.51068 29.9165 5.91341 30.0833 6.33333 30.0833H31.6667C32.0866 30.0833 32.4893 29.9165 32.7863 29.6196C33.0832 29.3227 33.25 28.9199 33.25 28.5C33.25 28.0801 33.0832 27.6773 32.7863 27.3804C32.4893 27.0835 32.0866 26.9167 31.6667 26.9167H6.33333Z" fill="white"/>
</svg>
