<svg width="194" height="34" viewBox="0 0 194 34" fill="none" xmlns="http://www.w3.org/2000/svg">
<g clip-path="url(#clip0_15_35)">
<path d="M5.68478 5.18863L14.7272 0L23.7696 5.18863L20.4452 7.10544L14.7272 3.83364L9.00921 7.10544L5.68478 5.18863ZM23.7696 11.7323L20.4452 9.81544L14.7272 13.0873L9.00921 9.81544L5.68478 11.7323V15.5659L11.4028 18.8377V25.3813L14.7272 27.2982L18.0516 25.3813V18.8377L23.7696 15.5659V11.7323ZM23.7696 22.1096V18.2759L20.4452 20.1927V24.0263L23.7696 22.1096ZM26.1299 23.4646L20.4119 26.7363V30.57L29.4544 25.3813V15.0041L26.1299 16.9209V23.4646ZM22.8056 8.46045L26.1299 10.3773V14.2109L29.4544 12.2941V8.46045L26.1299 6.54364L22.8056 8.46045ZM11.4028 28.1243V31.9581L14.7272 33.8748L18.0516 31.9581V28.1243L14.7272 30.0412L11.4028 28.1243ZM5.68478 22.1096L9.00921 24.0263V20.1927L5.68478 18.2759V22.1096ZM11.4028 8.46045L14.7272 10.3773L18.0516 8.46045L14.7272 6.54364L11.4028 8.46045ZM3.32441 10.3773L6.64883 8.46045L3.32441 6.54364L0 8.46045V12.2941L3.32441 14.2109V10.3773ZM3.32441 16.9209L0 15.0041V25.3813L9.04241 30.57V26.7363L3.32441 23.4646V16.9209Z" fill="#F0B90B"/>
<path d="M55.6634 21.2586V21.2047C55.6634 18.6731 54.3089 17.4073 52.1144 16.5724C53.4689 15.8183 54.6068 14.6333 54.6068 12.5057V12.4518C54.6068 9.48931 52.2228 7.57715 48.3488 7.57715H39.5442V26.4295H48.5656C52.8459 26.4295 55.6634 24.7059 55.6634 21.2586ZM50.4619 13.2059C50.4619 14.6064 49.2969 15.1989 47.4547 15.1989H43.6078V11.213H47.7256C49.4865 11.213 50.4619 11.9132 50.4619 13.1521V13.2059ZM51.5185 20.7469C51.5185 22.1472 50.4076 22.7936 48.5656 22.7936H43.6078V18.6461H48.4299C50.5703 18.6461 51.5185 19.4272 51.5185 20.6929V20.7469Z" fill="#F0B90B"/>
<path d="M76.217 26.4295V7.57715H72.0991V19.1848L63.2132 7.57715H59.3662V26.4295H63.4841V14.4448L72.668 26.4295H76.217Z" fill="#F0B90B"/>
<path d="M97.1595 21.2586V21.2047C97.1595 18.6731 95.805 17.4073 93.6107 16.5724C94.9652 15.8183 96.1031 14.6333 96.1031 12.5057V12.4518C96.1031 9.48931 93.7189 7.57715 89.8449 7.57715H81.0403V26.4295H90.0617C94.342 26.4295 97.1595 24.7059 97.1595 21.2586ZM91.958 13.2059C91.958 14.6064 90.793 15.1989 88.951 15.1989H85.104V11.213H89.2219C90.9828 11.213 91.958 11.9132 91.958 13.1521V13.2059ZM93.0146 20.7469C93.0146 22.1472 91.9039 22.7936 90.0617 22.7936H85.104V18.6461H89.9262C92.0664 18.6461 93.0146 19.4272 93.0146 20.6929V20.7469Z" fill="#F0B90B"/>
<path d="M122.304 23.0991L120.163 20.9446C118.538 22.4527 117.048 23.3955 114.718 23.3955C111.088 23.3955 108.46 20.3791 108.46 16.6624C108.46 12.9458 111.088 9.98331 114.718 9.98331C116.886 9.98331 118.511 10.9259 120.028 12.3264L122.168 9.87559C120.353 8.15194 118.24 6.94 114.745 6.94C109.002 6.94 104.965 11.3299 104.965 16.7163C104.965 22.1565 109.083 26.4388 114.61 26.4388C118.159 26.4388 120.326 25.146 122.304 23.0991Z" fill="#F0B90B"/>
<path d="M138.458 18.1706V26.1155H141.79V7.26318H138.458V15.1004H129.409V7.26318H126.077V26.1155H129.409V18.1706H138.458Z" fill="#F0B90B"/>
<path d="M156.738 7.12854H153.65L145.306 26.1155H148.719L150.67 21.5641H159.637L161.56 26.1155H165.082L156.738 7.12854ZM158.418 18.6285H151.889L155.14 11.0875L158.418 18.6285Z" fill="#F0B90B"/>
<path d="M168.795 7.26318V26.1155H172.127V7.26318H168.795Z" fill="#F0B90B"/>
<path d="M190.722 20.2982L180.562 7.26318H177.474V26.1155H180.752V12.7034L191.209 26.1155H194V7.26318H190.722V20.2982Z" fill="#F0B90B"/>
</g>
<defs>
<clipPath id="clip0_15_35">
<rect width="194" height="34" fill="white"/>
</clipPath>
</defs>
</svg>
