<svg width="46" height="46" viewBox="0 0 46 46" fill="none" xmlns="http://www.w3.org/2000/svg">
<path d="M23 46C35.7056 46 46 35.7056 46 23C46 10.2944 35.7056 0 23 0C10.2944 0 0 10.2944 0 23C0 35.7056 10.2944 46 23 46ZM10.5244 22.5017L32.7003 13.9514C33.7295 13.5796 34.6284 14.2025 34.2949 15.7588L34.2968 15.7569L30.521 33.5455C30.2412 34.8067 29.4917 35.1133 28.4433 34.5192L22.6933 30.2814L19.9199 32.9533C19.6132 33.2599 19.3545 33.5187 18.7603 33.5187L19.1686 27.6671L29.8252 18.0397C30.2891 17.6314 29.7217 17.4014 29.1103 17.8078L15.9409 26.0992L10.2638 24.3282C9.03133 23.9373 9.0045 23.0958 10.5244 22.5017Z" fill="white"/>
</svg>
