<svg width="31" height="23" viewBox="0 0 31 23" fill="none" xmlns="http://www.w3.org/2000/svg">
<path d="M0.875 1.75C0.875 1.31902 1.0462 0.905698 1.35095 0.600952C1.6557 0.296205 2.06902 0.125 2.5 0.125H28.5C28.931 0.125 29.3443 0.296205 29.649 0.600952C29.9538 0.905698 30.125 1.31902 30.125 1.75C30.125 2.18098 29.9538 2.5943 29.649 2.89905C29.3443 3.20379 28.931 3.375 28.5 3.375H2.5C2.06902 3.375 1.6557 3.20379 1.35095 2.89905C1.0462 2.5943 0.875 2.18098 0.875 1.75ZM0.875 11.5C0.875 11.069 1.0462 10.6557 1.35095 10.351C1.6557 10.0462 2.06902 9.875 2.5 9.875H28.5C28.931 9.875 29.3443 10.0462 29.649 10.351C29.9538 10.6557 30.125 11.069 30.125 11.5C30.125 11.931 29.9538 12.3443 29.649 12.649C29.3443 12.9538 28.931 13.125 28.5 13.125H2.5C2.06902 13.125 1.6557 12.9538 1.35095 12.649C1.0462 12.3443 0.875 11.931 0.875 11.5ZM2.5 19.625C2.06902 19.625 1.6557 19.7962 1.35095 20.101C1.0462 20.4057 0.875 20.819 0.875 21.25C0.875 21.681 1.0462 22.0943 1.35095 22.399C1.6557 22.7038 2.06902 22.875 2.5 22.875H28.5C28.931 22.875 29.3443 22.7038 29.649 22.399C29.9538 22.0943 30.125 21.681 30.125 21.25C30.125 20.819 29.9538 20.4057 29.649 20.101C29.3443 19.7962 28.931 19.625 28.5 19.625H2.5Z" fill="white"/>
</svg>
