<svg width="475" height="475" viewBox="0 0 475 475" fill="none" xmlns="http://www.w3.org/2000/svg">
<path d="M470.308 190.526C480.48 240.94 474.013 293.295 451.877 339.718C429.742 386.142 393.135 424.125 347.56 447.959C301.986 471.792 249.906 480.188 199.15 471.883C148.394 463.579 101.706 439.022 66.1035 401.906L111.035 358.807C137.304 386.193 171.753 404.312 209.203 410.44C246.653 416.567 285.081 410.373 318.708 392.787C352.335 375.201 379.346 347.175 395.678 312.922C412.011 278.668 416.783 240.038 409.277 202.84L470.308 190.526Z" fill="#D82D18"/>
<path d="M69.5621 405.438C27.9948 363.871 3.32027 308.365 0.311324 249.657C-2.69762 190.949 16.1729 133.211 53.2727 87.6116L101.568 126.905C74.1939 160.55 60.2703 203.152 62.4904 246.47C64.7106 289.787 82.9167 330.742 113.587 361.413L69.5621 405.438Z" fill="#EF5410"/>
<path d="M51.7325 89.5248C82.9478 50.3371 125.756 22.0246 174.035 8.63667L190.672 68.6333C155.05 78.5116 123.464 99.402 100.431 128.317L51.7325 89.5248Z" fill="#FF710A"/>
<path d="M172.71 9.00808C218.874 -4.08184 267.92 -2.88156 313.389 12.4508L293.495 71.4475C259.946 60.1346 223.757 59.2489 189.695 68.9073L172.71 9.00808Z" fill="#FF9D0A"/>
<path d="M312.374 12.1111C369.164 30.9765 416.739 70.5846 445.585 123.014L391.035 153.027C369.751 114.342 334.648 85.1167 292.746 71.1969L312.374 12.1111Z" fill="#FFBA0A"/>
<path d="M444.108 120.37C456.534 142.288 465.393 166.043 470.352 190.746L409.31 203.002C405.65 184.776 399.114 167.248 389.945 151.076L444.108 120.37Z" fill="white"/>
<path d="M299.512 371.872H297.384V369.44H295.88V371.872H291.576L297.064 364.8H295.336L289.608 372.128V373.248H295.832V376H297.384V373.248H299.512V371.872ZM299.425 364.8V366.192H301.953V376H303.537V364.8H299.425ZM308.419 370.816C309.971 370.816 311.011 369.6 311.011 367.76C311.011 365.92 309.971 364.704 308.419 364.704C306.867 364.704 305.811 365.936 305.811 367.76C305.811 369.584 306.867 370.816 308.419 370.816ZM307.523 376H308.755L316.403 364.8H315.171L307.523 376ZM308.419 369.904C307.459 369.904 306.851 369.088 306.851 367.76C306.851 366.432 307.459 365.616 308.419 365.616C309.395 365.616 309.987 366.416 309.987 367.76C309.987 369.104 309.395 369.904 308.419 369.904ZM315.507 376.096C317.059 376.096 318.115 374.864 318.115 373.04C318.115 371.216 317.059 369.984 315.507 369.984C313.955 369.984 312.915 371.216 312.915 373.04C312.915 374.864 313.955 376.096 315.507 376.096ZM315.507 375.184C314.531 375.184 313.939 374.384 313.939 373.04C313.939 371.696 314.531 370.896 315.507 370.896C316.467 370.896 317.075 371.712 317.075 373.04C317.075 374.368 316.467 375.184 315.507 375.184Z" fill="white"/>
<path d="M80.896 272.608L84.32 269.312C85.84 267.856 86.16 266.88 86.16 265.792C86.16 263.872 84.656 262.672 82.32 262.672C80.576 262.672 79.088 263.296 78.224 264.368L79.312 265.312C80 264.48 80.976 264.096 82.176 264.096C83.744 264.096 84.56 264.8 84.56 265.952C84.56 266.656 84.336 267.36 83.152 268.512L78.592 272.912V274H86.64V272.608H80.896ZM92.2435 267.504L95.1715 263.888V262.8H87.7795V264.192H93.1715L90.3555 267.648V268.768H91.2515C93.1715 268.768 94.0195 269.536 94.0195 270.72C94.0195 271.936 93.0595 272.704 91.3795 272.704C90.0035 272.704 88.7555 272.208 88.0035 271.504L87.2675 272.768C88.2115 273.616 89.7795 274.128 91.3795 274.128C94.2275 274.128 95.6195 272.592 95.6195 270.704C95.6195 268.976 94.4835 267.712 92.2435 267.504ZM98.1678 274.096C98.7438 274.096 99.2238 273.632 99.2238 272.992C99.2238 272.352 98.7438 271.904 98.1678 271.904C97.5758 271.904 97.0798 272.352 97.0798 272.992C97.0798 273.632 97.5758 274.096 98.1678 274.096ZM105.181 267.504L108.109 263.888V262.8H100.717V264.192H106.109L103.293 267.648V268.768H104.189C106.109 268.768 106.957 269.536 106.957 270.72C106.957 271.936 105.997 272.704 104.317 272.704C102.941 272.704 101.693 272.208 100.941 271.504L100.205 272.768C101.149 273.616 102.717 274.128 104.317 274.128C107.165 274.128 108.557 272.592 108.557 270.704C108.557 268.976 107.421 267.712 105.181 267.504ZM109.574 262.8V266.192H111.11V264.192H116.23L111.798 274H113.494L118.022 263.888V262.8H109.574ZM121.903 268.816C123.455 268.816 124.495 267.6 124.495 265.76C124.495 263.92 123.455 262.704 121.903 262.704C120.351 262.704 119.295 263.936 119.295 265.76C119.295 267.584 120.351 268.816 121.903 268.816ZM121.007 274H122.239L129.887 262.8H128.655L121.007 274ZM121.903 267.904C120.943 267.904 120.335 267.088 120.335 265.76C120.335 264.432 120.943 263.616 121.903 263.616C122.879 263.616 123.471 264.416 123.471 265.76C123.471 267.104 122.879 267.904 121.903 267.904ZM128.991 274.096C130.543 274.096 131.599 272.864 131.599 271.04C131.599 269.216 130.543 267.984 128.991 267.984C127.439 267.984 126.399 269.216 126.399 271.04C126.399 272.864 127.439 274.096 128.991 274.096ZM128.991 273.184C128.015 273.184 127.423 272.384 127.423 271.04C127.423 269.696 128.015 268.896 128.991 268.896C129.951 268.896 130.559 269.712 130.559 271.04C130.559 272.368 129.951 273.184 128.991 273.184Z" fill="white"/>
<path d="M62.128 19.8V21.192H64.656V31H66.24V19.8H62.128ZM73.2659 31.128C75.8739 31.128 77.8259 29.048 77.8259 25.4C77.8259 21.752 75.8739 19.672 73.2659 19.672C70.6419 19.672 68.6899 21.752 68.6899 25.4C68.6899 29.048 70.6419 31.128 73.2659 31.128ZM73.2659 29.704C71.5059 29.704 70.2899 28.264 70.2899 25.4C70.2899 22.536 71.5059 21.096 73.2659 21.096C75.0099 21.096 76.2259 22.536 76.2259 25.4C76.2259 28.264 75.0099 29.704 73.2659 29.704ZM81.7938 25.816C83.3458 25.816 84.3858 24.6 84.3858 22.76C84.3858 20.92 83.3458 19.704 81.7938 19.704C80.2418 19.704 79.1858 20.936 79.1858 22.76C79.1858 24.584 80.2418 25.816 81.7938 25.816ZM80.8978 31H82.1298L89.7778 19.8H88.5458L80.8978 31ZM81.7938 24.904C80.8338 24.904 80.2258 24.088 80.2258 22.76C80.2258 21.432 80.8338 20.616 81.7938 20.616C82.7698 20.616 83.3618 21.416 83.3618 22.76C83.3618 24.104 82.7698 24.904 81.7938 24.904ZM88.8818 31.096C90.4338 31.096 91.4898 29.864 91.4898 28.04C91.4898 26.216 90.4338 24.984 88.8818 24.984C87.3298 24.984 86.2898 26.216 86.2898 28.04C86.2898 29.864 87.3298 31.096 88.8818 31.096ZM88.8818 30.184C87.9058 30.184 87.3138 29.384 87.3138 28.04C87.3138 26.696 87.9058 25.896 88.8818 25.896C89.8418 25.896 90.4498 26.712 90.4498 28.04C90.4498 29.368 89.8418 30.184 88.8818 30.184Z" fill="white"/>
<path d="M222.128 77.8V79.192H224.656V89H226.24V77.8H222.128ZM233.266 89.128C235.874 89.128 237.826 87.048 237.826 83.4C237.826 79.752 235.874 77.672 233.266 77.672C230.642 77.672 228.69 79.752 228.69 83.4C228.69 87.048 230.642 89.128 233.266 89.128ZM233.266 87.704C231.506 87.704 230.29 86.264 230.29 83.4C230.29 80.536 231.506 79.096 233.266 79.096C235.01 79.096 236.226 80.536 236.226 83.4C236.226 86.264 235.01 87.704 233.266 87.704ZM241.794 83.816C243.346 83.816 244.386 82.6 244.386 80.76C244.386 78.92 243.346 77.704 241.794 77.704C240.242 77.704 239.186 78.936 239.186 80.76C239.186 82.584 240.242 83.816 241.794 83.816ZM240.898 89H242.13L249.778 77.8H248.546L240.898 89ZM241.794 82.904C240.834 82.904 240.226 82.088 240.226 80.76C240.226 79.432 240.834 78.616 241.794 78.616C242.77 78.616 243.362 79.416 243.362 80.76C243.362 82.104 242.77 82.904 241.794 82.904ZM248.882 89.096C250.434 89.096 251.49 87.864 251.49 86.04C251.49 84.216 250.434 82.984 248.882 82.984C247.33 82.984 246.29 84.216 246.29 86.04C246.29 87.864 247.33 89.096 248.882 89.096ZM248.882 88.184C247.906 88.184 247.314 87.384 247.314 86.04C247.314 84.696 247.906 83.896 248.882 83.896C249.842 83.896 250.45 84.712 250.45 86.04C250.45 87.368 249.842 88.184 248.882 88.184Z" fill="white"/>
<path d="M395.128 39.8V41.192H397.656V51H399.24V39.8H395.128ZM406.266 51.128C408.874 51.128 410.826 49.048 410.826 45.4C410.826 41.752 408.874 39.672 406.266 39.672C403.642 39.672 401.69 41.752 401.69 45.4C401.69 49.048 403.642 51.128 406.266 51.128ZM406.266 49.704C404.506 49.704 403.29 48.264 403.29 45.4C403.29 42.536 404.506 41.096 406.266 41.096C408.01 41.096 409.226 42.536 409.226 45.4C409.226 48.264 408.01 49.704 406.266 49.704ZM414.794 45.816C416.346 45.816 417.386 44.6 417.386 42.76C417.386 40.92 416.346 39.704 414.794 39.704C413.242 39.704 412.186 40.936 412.186 42.76C412.186 44.584 413.242 45.816 414.794 45.816ZM413.898 51H415.13L422.778 39.8H421.546L413.898 51ZM414.794 44.904C413.834 44.904 413.226 44.088 413.226 42.76C413.226 41.432 413.834 40.616 414.794 40.616C415.77 40.616 416.362 41.416 416.362 42.76C416.362 44.104 415.77 44.904 414.794 44.904ZM421.882 51.096C423.434 51.096 424.49 49.864 424.49 48.04C424.49 46.216 423.434 44.984 421.882 44.984C420.33 44.984 419.29 46.216 419.29 48.04C419.29 49.864 420.33 51.096 421.882 51.096ZM421.882 50.184C420.906 50.184 420.314 49.384 420.314 48.04C420.314 46.696 420.906 45.896 421.882 45.896C422.842 45.896 423.45 46.712 423.45 48.04C423.45 49.368 422.842 50.184 421.882 50.184Z" fill="white"/>
<path d="M353.968 182.264H352.72L353.024 179.192H358V177.8H351.68L351.088 183.656H353.632C356.224 183.656 357.024 184.44 357.024 185.704C357.024 186.92 356.064 187.704 354.368 187.704C353.008 187.704 351.76 187.208 351.008 186.504L350.272 187.768C351.232 188.616 352.8 189.128 354.384 189.128C357.248 189.128 358.624 187.576 358.624 185.64C358.624 183.656 357.312 182.264 353.968 182.264ZM361.012 189.096C361.588 189.096 362.068 188.632 362.068 187.992C362.068 187.352 361.588 186.904 361.012 186.904C360.42 186.904 359.924 187.352 359.924 187.992C359.924 188.632 360.42 189.096 361.012 189.096ZM368.225 182.2C366.833 182.2 365.649 182.712 365.009 183.672C364.993 183.528 364.993 183.4 364.993 183.272C364.993 180.472 366.449 179.048 368.721 179.048C369.521 179.048 370.289 179.192 370.865 179.576L371.473 178.328C370.753 177.88 369.745 177.672 368.689 177.672C365.553 177.672 363.393 179.72 363.393 183.544C363.393 187.112 365.089 189.128 368.097 189.128C370.321 189.128 372.065 187.752 372.065 185.592C372.065 183.528 370.449 182.2 368.225 182.2ZM368.033 187.832C366.305 187.832 365.377 186.824 365.377 185.672C365.377 184.44 366.433 183.496 367.953 183.496C369.521 183.496 370.513 184.344 370.513 185.656C370.513 186.984 369.489 187.832 368.033 187.832ZM377.556 182.504L380.484 178.888V177.8H373.092V179.192H378.484L375.668 182.648V183.768H376.564C378.484 183.768 379.332 184.536 379.332 185.72C379.332 186.936 378.372 187.704 376.692 187.704C375.316 187.704 374.068 187.208 373.316 186.504L372.58 187.768C373.524 188.616 375.092 189.128 376.692 189.128C379.54 189.128 380.932 187.592 380.932 185.704C380.932 183.976 379.796 182.712 377.556 182.504ZM384.7 183.816C386.252 183.816 387.292 182.6 387.292 180.76C387.292 178.92 386.252 177.704 384.7 177.704C383.148 177.704 382.092 178.936 382.092 180.76C382.092 182.584 383.148 183.816 384.7 183.816ZM383.804 189H385.036L392.684 177.8H391.452L383.804 189ZM384.7 182.904C383.74 182.904 383.132 182.088 383.132 180.76C383.132 179.432 383.74 178.616 384.7 178.616C385.676 178.616 386.268 179.416 386.268 180.76C386.268 182.104 385.676 182.904 384.7 182.904ZM391.788 189.096C393.34 189.096 394.396 187.864 394.396 186.04C394.396 184.216 393.34 182.984 391.788 182.984C390.236 182.984 389.196 184.216 389.196 186.04C389.196 187.864 390.236 189.096 391.788 189.096ZM391.788 188.184C390.812 188.184 390.22 187.384 390.22 186.04C390.22 184.696 390.812 183.896 391.788 183.896C392.748 183.896 393.356 184.712 393.356 186.04C393.356 187.368 392.748 188.184 391.788 188.184Z" fill="white"/>
</svg>
