<svg width="222" height="30" viewBox="0 0 222 30" fill="none" xmlns="http://www.w3.org/2000/svg">
<path d="M40.12 21V6.6H43.02L48.24 12.82L53.44 6.6H56.36V21H53.7V10.44L48.24 16.94L42.76 10.46V21H40.12ZM60.7147 21V9.38C60.7147 8.87333 60.8414 8.41333 61.0947 8C61.348 7.57333 61.6814 7.23333 62.0947 6.98C62.5214 6.72667 62.988 6.6 63.4947 6.6H72.3147C72.8214 6.6 73.288 6.72667 73.7147 6.98C74.1414 7.23333 74.4814 7.57333 74.7347 8C74.988 8.41333 75.1147 8.87333 75.1147 9.38V21H72.4547V16.16H63.3547V21H60.7147ZM63.3547 13.52H72.4547V9.5C72.4547 9.43333 72.428 9.38 72.3747 9.34C72.3214 9.28667 72.2614 9.26 72.1947 9.26H63.5947C63.528 9.26 63.468 9.28667 63.4147 9.34C63.3747 9.38 63.3547 9.43333 63.3547 9.5V13.52ZM84.5534 21V9.26H78.6734V6.6H93.0734V9.26H87.2134V21H84.5534ZM108.049 21L103.709 15.82H107.169L110.929 20.26V21H108.049ZM96.5692 21V6.62H108.169C108.676 6.62 109.143 6.74667 109.569 7C109.996 7.25333 110.336 7.59333 110.589 8.02C110.843 8.43333 110.969 8.89333 110.969 9.4V13.28C110.969 13.7867 110.843 14.2533 110.589 14.68C110.336 15.1067 109.996 15.4467 109.569 15.7C109.143 15.94 108.676 16.06 108.169 16.06L99.2092 16.08V21H96.5692ZM99.4492 13.4H108.049C108.116 13.4 108.176 13.38 108.229 13.34C108.283 13.3 108.309 13.2467 108.309 13.18V9.5C108.309 9.43333 108.283 9.38 108.229 9.34C108.176 9.28667 108.116 9.26 108.049 9.26H99.4492C99.3826 9.26 99.3226 9.28667 99.2692 9.34C99.2292 9.38 99.2092 9.43333 99.2092 9.5V13.18C99.2092 13.2467 99.2292 13.3 99.2692 13.34C99.3226 13.38 99.3826 13.4 99.4492 13.4ZM114.793 21V6.6H117.413V21H114.793ZM121.15 21V20.26L126.57 13.8L121.15 7.34V6.6H124.01L128.33 11.72L132.61 6.6H135.49V7.34L130.05 13.8L135.49 20.24V21H132.61L128.31 15.9L124.01 21H121.15ZM147.714 21V6.58H150.354V18.34H162.114V21H147.714ZM165.32 21V9.38C165.32 8.87333 165.447 8.41333 165.7 8C165.953 7.57333 166.287 7.23333 166.7 6.98C167.127 6.72667 167.593 6.6 168.1 6.6H176.92C177.427 6.6 177.893 6.72667 178.32 6.98C178.747 7.23333 179.087 7.57333 179.34 8C179.593 8.41333 179.72 8.87333 179.72 9.38V21H177.06V16.16H167.96V21H165.32ZM167.96 13.52H177.06V9.5C177.06 9.43333 177.033 9.38 176.98 9.34C176.927 9.28667 176.867 9.26 176.8 9.26H168.2C168.133 9.26 168.073 9.28667 168.02 9.34C167.98 9.38 167.96 9.43333 167.96 9.5V13.52ZM184.059 21V6.6H195.099C195.606 6.6 196.066 6.72667 196.479 6.98C196.906 7.23333 197.246 7.57333 197.499 8C197.752 8.41333 197.879 8.87333 197.879 9.38V12.2C197.879 12.3733 197.866 12.54 197.839 12.7C197.812 12.86 197.766 13.0133 197.699 13.16C197.926 13.4667 198.106 13.7867 198.239 14.12C198.386 14.4533 198.459 14.7867 198.459 15.12V18.22C198.459 18.7267 198.332 19.1933 198.079 19.62C197.826 20.0333 197.486 20.3667 197.059 20.62C196.632 20.8733 196.166 21 195.659 21H184.059ZM186.939 18.34H195.539C195.606 18.34 195.666 18.32 195.719 18.28C195.772 18.2267 195.799 18.1667 195.799 18.1V15.24C195.799 15.1733 195.772 15.12 195.719 15.08C195.666 15.0267 195.606 15 195.539 15H186.939C186.872 15 186.812 15.0267 186.759 15.08C186.719 15.12 186.699 15.1733 186.699 15.24V18.1C186.699 18.1667 186.719 18.2267 186.759 18.28C186.812 18.32 186.872 18.34 186.939 18.34ZM186.939 12.34H194.979C195.046 12.34 195.099 12.32 195.139 12.28C195.179 12.2267 195.199 12.1667 195.199 12.1V9.5C195.199 9.43333 195.179 9.38 195.139 9.34C195.099 9.28667 195.046 9.26 194.979 9.26H186.939C186.872 9.26 186.812 9.28667 186.759 9.34C186.719 9.38 186.699 9.43333 186.699 9.5V12.1C186.699 12.1667 186.719 12.2267 186.759 12.28C186.812 12.32 186.872 12.34 186.939 12.34ZM205.36 21C204.853 21 204.386 20.8733 203.96 20.62C203.546 20.3667 203.213 20.0333 202.96 19.62C202.706 19.1933 202.58 18.7267 202.58 18.22V17.12H205.22V18.1C205.22 18.1667 205.24 18.2267 205.28 18.28C205.333 18.32 205.393 18.34 205.46 18.34H214.08C214.146 18.34 214.2 18.32 214.24 18.28C214.293 18.2267 214.32 18.1667 214.32 18.1V15.36C214.32 15.2933 214.293 15.24 214.24 15.2C214.2 15.16 214.146 15.14 214.08 15.14H205.36C204.853 15.14 204.386 15.0133 203.96 14.76C203.546 14.5067 203.213 14.1733 202.96 13.76C202.706 13.3333 202.58 12.86 202.58 12.34V9.38C202.58 8.87333 202.706 8.41333 202.96 8C203.213 7.57333 203.546 7.23333 203.96 6.98C204.386 6.72667 204.853 6.6 205.36 6.6H214.2C214.706 6.6 215.166 6.72667 215.58 6.98C216.006 7.23333 216.346 7.57333 216.6 8C216.853 8.41333 216.98 8.87333 216.98 9.38V10.48H214.32V9.5C214.32 9.43333 214.293 9.38 214.24 9.34C214.2 9.28667 214.146 9.26 214.08 9.26H205.46C205.393 9.26 205.333 9.28667 205.28 9.34C205.24 9.38 205.22 9.43333 205.22 9.5V12.24C205.22 12.3067 205.24 12.36 205.28 12.4C205.333 12.44 205.393 12.46 205.46 12.46H214.2C214.706 12.46 215.166 12.5867 215.58 12.84C216.006 13.0933 216.346 13.4333 216.6 13.86C216.853 14.2733 216.98 14.74 216.98 15.26V18.22C216.98 18.7267 216.853 19.1933 216.6 19.62C216.346 20.0333 216.006 20.3667 215.58 20.62C215.166 20.8733 214.706 21 214.2 21H205.36Z" fill="#FEFEFE"/>
<path d="M0 21.144V4.01489L7.14134 8.29718V17.1294L14.2827 21.4117L21.6885 17.1294V8.29718L29.0944 4.01489V21.144L14.2827 29.7086L0 21.144Z" fill="url(#paint0_linear_101_78)"/>
<path d="M7.14134 0L0 4.01464L14.2827 12.5792L29.0944 4.01464L21.424 0L14.2827 4.28229L7.14134 0Z" fill="url(#paint1_linear_101_78)"/>
<defs>
<linearGradient id="paint0_linear_101_78" x1="22.8516" y1="29.7086" x2="22.6044" y2="2.88919" gradientUnits="userSpaceOnUse">
<stop stop-color="#96CC6A"/>
<stop offset="0.188801" stop-color="#699A57"/>
<stop offset="1" stop-color="#325E3F"/>
</linearGradient>
<linearGradient id="paint1_linear_101_78" x1="22.8516" y1="12.5792" x2="22.7923" y2="-0.551974" gradientUnits="userSpaceOnUse">
<stop stop-color="#96CC6A"/>
<stop offset="0.188801" stop-color="#699A57"/>
<stop offset="1" stop-color="#325E3F"/>
</linearGradient>
</defs>
</svg>
