<svg width="46" height="46" viewBox="0 0 46 46" fill="none" xmlns="http://www.w3.org/2000/svg">
<circle cx="23" cy="23" r="23" fill="white"/>
<path d="M32.7918 16.2477C29.6058 13.9357 26.5537 14.0004 26.5537 14.0004L26.2417 14.3461C30.0292 15.4482 31.7893 17.0687 31.7893 17.0687C26.3706 14.1751 19.4682 14.1958 13.8319 17.0687C13.8319 17.0687 15.6588 15.3616 19.6691 14.2595L19.4463 14.0002C19.4463 14.0002 16.4163 13.9354 13.2082 16.2474C13.2082 16.2474 10 21.8441 10 28.7372C10 28.7372 11.8715 31.8487 16.7954 32C16.7954 32 17.6197 31.0492 18.2881 30.2282C15.4584 29.4071 14.3891 27.7001 14.3891 27.7001C16.1667 28.7788 17.9643 29.4541 20.2042 29.8825C23.8486 30.6101 28.3816 29.8621 31.7672 27.7001C31.7672 27.7001 30.6532 29.4504 27.7347 30.2499C28.403 31.0494 29.2052 31.9785 29.2052 31.9785C34.1285 31.8275 36 28.7159 36 28.7374C36 21.8443 32.7918 16.2477 32.7918 16.2477ZM18.8447 26.728C17.597 26.728 16.5723 25.6691 16.5723 24.3509C16.6635 21.1943 21.049 21.2041 21.1174 24.3509C21.1172 25.6691 20.1147 26.728 18.8447 26.728ZM26.9768 26.728C25.7291 26.728 24.7044 25.6691 24.7044 24.3509C24.8046 21.2004 29.1354 21.199 29.2495 24.3509C29.2492 25.6691 28.2467 26.728 26.9768 26.728Z" fill="black"/>
</svg>
